<svg xmlns="http://www.w3.org/2000/svg" xmlns:xlink="http://www.w3.org/1999/xlink" version="1.1" x="0px" y="0px" viewBox="0 0 75 92.5" enable-background="new 0 0 75 74" xml:space="preserve"><path fill-rule="evenodd" clip-rule="evenodd" d="M60.835,29.958c1.94,2.156,2.667,5.28,1.627,8.205  c-1.04,2.927-3.576,4.889-6.442,5.338c0.313,2.884-0.923,5.843-3.477,7.609c-2.554,1.766-5.759,1.876-8.346,0.564  c-1.432,2.523-4.166,4.202-7.269,4.14c-3.104-0.06-5.769-1.845-7.101-4.421c-2.636,1.209-5.835,0.973-8.318-0.892  c-2.483-1.864-3.602-4.869-3.176-7.739c-2.847-0.56-5.304-2.621-6.229-5.585c-0.924-2.964-0.075-6.056,1.948-8.135  c-1.982-2.119-2.77-5.227-1.787-8.172c0.982-2.945,3.479-4.958,6.336-5.462c-0.37-2.877,0.808-5.86,3.327-7.675  c2.518-1.816,5.722-1.988,8.333-0.727c1.382-2.551,4.082-4.283,7.187-4.283c3.335,0,6.201,2,7.47,4.866  c2.765-1.475,6.254-1.286,8.882,0.768c2.446,1.913,3.506,4.94,3.024,7.801c2.834,0.615,5.25,2.725,6.117,5.705  C63.808,24.842,62.898,27.919,60.835,29.958z M48.738,20.881l-0.089-0.126c-1.388-0.856-3.021-0.29-4.019,0.776l-8.594,10.263  l-7.388-5.008c-1.425-0.88-3.294-0.437-4.173,0.988l-0.089,0.263c-0.26,0.203-0.907,2.459,0.988,4.172l9.048,9.503  c0.816,0.774,1.815,0.643,2.707,0.428c0.895-0.207,1.71-0.753,2.23-1.597l10.384-15.787C50.6,23.369,50.125,21.737,48.738,20.881z   M29.066,53.584c1.206,2.332,3.414,4.056,6.06,4.634l-7.709,13.06l-3.962-7.067l-8.201,0.079l6.348-10.755  C24.007,54.637,26.728,54.656,29.066,53.584z M44.862,53.893c2.454,1.244,5.388,1.242,7.958-0.006l6.141,10.404l-8.677-0.094  l-3.486,7.083L39.078,58.2C41.548,57.628,43.639,56.047,44.862,53.893z"/><text x="0" y="89" fill="#000000" font-size="5px" font-weight="bold" font-family="'Helvetica Neue', Helvetica, Arial-Unicode, Arial, Sans-serif">Created by Alexander Bickov</text><text x="0" y="94" fill="#000000" font-size="5px" font-weight="bold" font-family="'Helvetica Neue', Helvetica, Arial-Unicode, Arial, Sans-serif">from the Noun Project</text></svg>