<?xml version="1.0" encoding="utf-8"?>
<!-- Generator: Adobe Illustrator 16.0.0, SVG Export Plug-In . SVG Version: 6.00 Build 0)  -->
<!DOCTYPE svg PUBLIC "-//W3C//DTD SVG 1.1//EN" "http://www.w3.org/Graphics/SVG/1.1/DTD/svg11.dtd">
<svg version="1.1" id="Layer_1" xmlns="http://www.w3.org/2000/svg" xmlns:xlink="http://www.w3.org/1999/xlink" x="0px" y="0px"
	 width="612px" height="792px" viewBox="0 0 612 792" enable-background="new 0 0 612 792" xml:space="preserve">
<path fill="#B13A3A" d="M600.564,377.968L427.841,217.422l173.743-157.45c3.303-3.003,4.34-7.57,2.593-11.554
	c-1.746-3.984-5.905-6.588-10.537-6.588H38.554V12.227c0-5.836-5.096-10.572-11.375-10.572c-6.279,0-11.375,4.736-11.375,10.572
	v767.546c0,5.836,5.096,10.571,11.375,10.571c6.279,0,11.375-4.735,11.375-10.571V397.058H593.64c0.072,0.009,0.146,0,0.181,0
	c6.279,0,11.376-4.737,11.376-10.573C605.196,382.992,603.377,379.896,600.564,377.968z M38.554,375.913V62.974h527.131
	L403.699,209.76c-2.174,1.97-3.413,4.677-3.43,7.501c-0.019,2.825,1.183,5.541,3.329,7.545l162.578,151.107H38.554z"/>
</svg>
